# xmcd
#
# Track frame offsets:
#	150
#	19200
#	40472
#	64420
#	83565
#	105134
#	122636
#	145798
#	167355
#	185042
#	206425
#	226839
#	246590
#	265207
#	285752
#
# Disc length: 4077 seconds
#
# Revision: 1
# Processed by: cddbd v1.5.2PL0 Copyright (c) Steve Scherf et al.
# Submitted via: audiograbber 1.83.01
#
DISCID=c70feb0f
DTITLE=ChartBuster - 90334
DYEAR=1900
DGENRE=
TTITLE0=Groban, Josh - To Where You Are
TTITLE1=Groban, Josh - Vincent (Starry Night)
TTITLE2=Groban, Josh - February Song
TTITLE3=Groban, Josh - You Raise Me Up
TTITLE4=Groban, Josh - Broken Vow
TTITLE5=Groban, Josh - You're Still You
TTITLE6=Groban, Josh - My Confession
TTITLE7=Groban, Josh - Home to Stay
TTITLE8=Groban, Josh - Awake
TTITLE9=Groban, Josh - When You Say You Love Me
TTITLE10=Groban, Josh - You Are Loved (Don't Give Up)
TTITLE11=Groban, Josh - Let Me Fall
TTITLE12=Groban, Josh - Never Let Go
TTITLE13=Groban, Josh - Remember When It Rained
TTITLE14=Groban, Josh - Believe
EXTD=
EXTT0=
EXTT1=
EXTT2=
EXTT3=
EXTT4=
EXTT5=
EXTT6=
EXTT7=
EXTT8=
EXTT9=
EXTT10=
EXTT11=
EXTT12=
EXTT13=
EXTT14=
PLAYORDER=
